# xmcd CD database file
#
# Track frame offsets:
#	150
#	31575
#	51000
#	94500
#	130725
#	154425
#	180975
#	214006
#	248056
#
# Disc length: 3660 seconds
#
# Revision: 0
# Processed by: cddbd v1.5.1PL0 Copyright (c) Steve Scherf et al.
# Submitted via: CDex 1.51
#
DISCID=680e4a09
DTITLE=Front Page Orchestra - Harmony of The Soul
DYEAR=2003
DGENRE=Jazz
TTITLE0=TIME FILES
TTITLE1=HAPPY HOUR
TTITLE2=ECHOES OF THE FOREST
TTITLE3=SUMIDAGAWA
TTITLE4=TOITATA
TTITLE5=WHEN IT GOES AWAY
TTITLE6=I ASK ONLY THIS OF YOU
TTITLE7=THIRSTY FOR THE MOMENT
TTITLE8=EAZY AS A PIE
EXTD=YEAR: 2003
EXTT0=
EXTT1=
EXTT2=
EXTT3=
EXTT4=
EXTT5=
EXTT6=
EXTT7=
EXTT8=
PLAYORDER=
